<?xml version="1.0" encoding="utf-8"?>
<!-- Generator: Adobe Illustrator 27.2.0, SVG Export Plug-In . SVG Version: 6.00 Build 0)  -->
<svg version="1.1" id="Layer_1" xmlns="http://www.w3.org/2000/svg" xmlns:xlink="http://www.w3.org/1999/xlink" x="0px" y="0px"
	 viewBox="0 0 32 32" style="enable-background:new 0 0 32 32;" xml:space="preserve">
<style type="text/css">
	.st0{fill:#FFFFFF;}
</style>
<g>
	<path class="st0" d="M10.9,26H6.4V11.3H11V26H10.9z M8.6,9.3C7.2,9.3,6,8.1,6,6.6S7.2,4,8.6,4s2.6,1.2,2.6,2.6
		C11.3,8.1,10.1,9.3,8.6,9.3z M27,26h-4.6v-7.1c0-1.7,0-3.9-2.4-3.9s-2.5,1.9-2.5,3.8V26H13V11.3h4.4v2h0.1c0.6-1.2,1.9-2.3,4.1-2.3
		c4.6,0,5.5,3,5.5,6.9L27,26L27,26z"/>
</g>
</svg>
