<?xml version="1.0" encoding="utf-8"?>
<!-- Generator: Adobe Illustrator 27.2.0, SVG Export Plug-In . SVG Version: 6.00 Build 0)  -->
<svg version="1.1" id="Layer_1" xmlns="http://www.w3.org/2000/svg" xmlns:xlink="http://www.w3.org/1999/xlink" x="0px" y="0px"
	 viewBox="0 0 500 64" style="enable-background:new 0 0 500 64;" xml:space="preserve">
<style type="text/css">
	.st0{fill:#F2F6FF;}
</style>
<path class="st0" d="M44.4,41.2C49.5,49.7,55.5,53,64.1,53c6.8,0,12.7-3.4,12.7-10.5S72,32.2,62,26.1c-7.8-4.8-9.3-6.1-9.3-8.3
	c0-2.1,2-3.8,5.5-3.8c6.3,0,8.7,5.8,10.6,11.7l7.5-3.3c-5.4-7.2-10.8-9.6-17.5-9.6c-6.6,0-12.4,3-12.4,9.3c0,5.6,3.4,8.7,12.1,14.3
	c8.3,5.3,12,7.6,12,10.8c0,2.7-2,4.7-5.6,4.7c-6.4,0-10.9-6.5-13.1-15L44.4,41.2z"/>
<path class="st0" d="M79.7,13.6c0.4,3.3,0.6,5.7,0.6,11V41c0,5.3-0.2,7.8-0.6,11h12.7c-0.4-3.3-0.6-5.7-0.6-11V24.6
	c0-5.3,0.2-7.8,0.6-11H79.7z"/>
<path class="st0" d="M96.7,52h2.4c-0.4-3.3-0.6-5.7-0.6-11V16.2l0.4,0L116.4,52h14c-0.5-3.3-0.7-5.7-0.7-11V24.6
	c0-5.3,0.2-7.8,0.7-11H128c0.4,3.3,0.7,5.7,0.7,11v24.8l-0.4,0l-17.5-35.8h-14c0.4,3.3,0.6,5.7,0.6,11V41
	C97.4,46.3,97.2,48.7,96.7,52z"/>
<path class="st0" d="M171.1,46.8l-14.8-20.2l8.1-7.9c2-2,3.4-3.2,6-5.1h-3c-1.3,1.9-2.6,3.1-4.8,5.2L146.8,34v-9.4
	c0-5.3,0.2-7.8,0.6-11h-12.7c0.4,3.3,0.6,5.7,0.6,11V41c0,5.3-0.2,7.8-0.6,11h12.7c-0.4-3.3-0.6-5.7-0.6-11v-5.1l1.1-1l8.8,12
	c1.9,2.6,2.4,3.3,3.2,5.2h16.5C173.9,50.2,172.8,49,171.1,46.8z"/>
<path class="st0" d="M214.1,53c13.5,0,24-7,24-20.2c0-13.1-10.4-20.2-24-20.2c-13.6,0-24,7.1-24,20.2C190.1,46,200.5,53,214.1,53z
	 M214.1,51.7c-8.5,0-11.7-8.7-11.7-18.9c0-10.1,3.2-18.9,11.7-18.9c8.4,0,11.7,8.8,11.7,18.9C225.8,42.9,222.5,51.7,214.1,51.7z"/>
<path class="st0" d="M273.9,43.3c-2.6-5.9-7-8.3-12.2-9.2c7.7-0.6,13.7-2.9,13.7-10.1c0-8.8-8.9-10.3-18.8-10.3h-14.8
	c0.4,3.3,0.6,5.7,0.6,11V41c0,5.3-0.2,7.8-0.6,11h12.7c-0.4-3.3-0.6-5.7-0.6-11v-6.7h0.4c4.2,0,5.1,1.2,7.6,9.3
	c2.5,8.1,9.8,8.4,20.3,8.4v-1.1C278.2,50.9,276.3,48.5,273.9,43.3z M254,32.9v-18h2.5c4.2,0,7.4,1.9,7.4,9s-3.3,9-7.4,9H254z"/>
<path class="st0" d="M295.3,41.2C300.4,49.7,306.4,53,315,53c6.8,0,12.7-3.4,12.7-10.5s-4.8-10.3-14.8-16.4
	c-7.8-4.8-9.3-6.1-9.3-8.3c0-2.1,2-3.8,5.5-3.8c6.3,0,8.7,5.8,10.6,11.7l7.5-3.3c-5.4-7.2-10.8-9.6-17.5-9.6c-6.6,0-12.4,3-12.4,9.3
	c0,5.6,3.4,8.7,12.1,14.3c8.3,5.3,12,7.6,12,10.8c0,2.7-2,4.7-5.6,4.7c-6.4,0-10.9-6.5-13.1-15L295.3,41.2z"/>
<path class="st0" d="M385.5,13.6c-0.2,2.4-0.6,3.8-1.1,5.6l-8.2,31l-8.2-30.3c-0.7-2.5-1-3.7-1.1-6.3h-13.6c1.1,1.9,1.7,3.4,2.5,6.3
	l2.4,8.6l-5.7,21.6l-8.2-30.3c-0.7-2.5-1-3.7-1.2-6.3h-13.5c1.1,1.9,1.7,3.4,2.5,6.3l8.6,32.1h13.6c-0.5-1.8-0.3-2.5,0.1-4.3
	l4.4-16.8l5.7,21h13.5c-0.5-1.8-0.3-2.5,0.1-4.3l7.6-28.6c0.5-1.8,0.8-3,2-5.6H385.5z"/>
<path class="st0" d="M391.4,13.6c0.4,3.3,0.6,5.7,0.6,11V41c0,5.3-0.2,7.8-0.6,11h12.7c-0.4-3.3-0.6-5.7-0.6-11V24.6
	c0-5.3,0.2-7.8,0.6-11H391.4z"/>
<path class="st0" d="M408.4,52h2.6c-0.5-3.3-0.7-5.7-0.7-11V16L425.9,53h2.1l14.1-37.1V41c0,5.3-0.2,7.8-0.6,11h12.7
	c-0.4-3.3-0.7-5.7-0.7-11V24.6c0-5.3,0.2-7.8,0.7-11h-12.5l-9.3,24.1l-10.3-24.1h-13.6c0.4,3.3,0.6,5.7,0.6,11V41
	C409.1,46.3,408.9,48.7,408.4,52z"/>
</svg>
