<svg xmlns="http://www.w3.org/2000/svg" xmlns:xlink="http://www.w3.org/1999/xlink" width="500" zoomAndPan="magnify" viewBox="0 0 375 374.999991" height="500" preserveAspectRatio="xMidYMid meet" version="1.0"><defs><g/><clipPath id="c702f72fab"><path d="M 187.5 0 C 83.945312 0 0 83.945312 0 187.5 C 0 291.054688 83.945312 375 187.5 375 C 291.054688 375 375 291.054688 375 187.5 C 375 83.945312 291.054688 0 187.5 0 " clip-rule="nonzero"/></clipPath></defs><g clip-path="url(#c702f72fab)"><rect x="-37.5" width="450" fill="#0a131e" y="-37.499999" height="449.999989" fill-opacity="1"/></g><g fill="#f2f6ff" fill-opacity="1"><g transform="translate(41.696828, 226.786024)"><g><path d="M 4.609375 -25.925781 C 17.054688 -5.414062 31.457031 2.304688 52.082031 2.304688 C 68.332031 2.304688 82.503906 -5.761719 82.503906 -22.816406 C 82.503906 -39.871094 70.867188 -47.589844 46.898438 -62.222656 C 28.230469 -73.632812 24.660156 -76.859375 24.660156 -82.160156 C 24.660156 -87.230469 29.5 -91.378906 37.910156 -91.378906 C 53.121094 -91.378906 58.882812 -77.433594 63.375 -63.375 L 81.46875 -71.328125 C 68.5625 -88.496094 55.425781 -94.488281 39.523438 -94.488281 C 23.738281 -94.488281 9.792969 -87.34375 9.792969 -72.25 C 9.792969 -58.765625 17.859375 -51.394531 38.949219 -37.910156 C 58.765625 -25.121094 67.640625 -19.703125 67.640625 -12.097656 C 67.640625 -5.53125 62.914062 -0.804688 54.15625 -0.804688 C 38.71875 -0.804688 28 -16.476562 22.699219 -36.757812 Z M 4.609375 -25.925781 "/></g></g></g><g fill="#f2f6ff" fill-opacity="1"><g transform="translate(123.040478, 226.786024)"><g><path d="M 64.527344 2.304688 C 97.023438 2.304688 122.027344 -14.519531 122.027344 -46.09375 C 122.027344 -77.550781 97.023438 -94.488281 64.527344 -94.488281 C 31.804688 -94.488281 6.914062 -77.550781 6.914062 -46.09375 C 6.914062 -14.519531 31.804688 2.304688 64.527344 2.304688 Z M 64.527344 -0.804688 C 44.132812 -0.804688 36.414062 -21.777344 36.414062 -46.09375 C 36.414062 -70.289062 44.132812 -91.378906 64.527344 -91.378906 C 84.695312 -91.378906 92.53125 -70.289062 92.53125 -46.09375 C 92.53125 -21.777344 84.695312 -0.804688 64.527344 -0.804688 Z M 64.527344 -0.804688 "/></g></g></g><g fill="#f2f6ff" fill-opacity="1"><g transform="translate(246.208549, 226.786024)"><g><path d="M 4.609375 -25.925781 C 17.054688 -5.414062 31.457031 2.304688 52.082031 2.304688 C 68.332031 2.304688 82.503906 -5.761719 82.503906 -22.816406 C 82.503906 -39.871094 70.867188 -47.589844 46.898438 -62.222656 C 28.230469 -73.632812 24.660156 -76.859375 24.660156 -82.160156 C 24.660156 -87.230469 29.5 -91.378906 37.910156 -91.378906 C 53.121094 -91.378906 58.882812 -77.433594 63.375 -63.375 L 81.46875 -71.328125 C 68.5625 -88.496094 55.425781 -94.488281 39.523438 -94.488281 C 23.738281 -94.488281 9.792969 -87.34375 9.792969 -72.25 C 9.792969 -58.765625 17.859375 -51.394531 38.949219 -37.910156 C 58.765625 -25.121094 67.640625 -19.703125 67.640625 -12.097656 C 67.640625 -5.53125 62.914062 -0.804688 54.15625 -0.804688 C 38.71875 -0.804688 28 -16.476562 22.699219 -36.757812 Z M 4.609375 -25.925781 "/></g></g></g></svg>